<?xml version="1.0" standalone="no"?>
<!DOCTYPE svg PUBLIC "-//W3C//DTD SVG 20010904//EN"
 "http://www.w3.org/TR/2001/REC-SVG-20010904/DTD/svg10.dtd">
<svg version="1.0" xmlns="http://www.w3.org/2000/svg"
 width="960.000000pt" height="960.000000pt" viewBox="0 0 960.000000 960.000000"
 preserveAspectRatio="xMidYMid meet">
<metadata>
Created by potrace 1.11, written by Peter Selinger 2001-2013
</metadata>
<g transform="translate(0.000000,960.000000) scale(0.100000,-0.100000)"
fill="#000000" stroke="none">
<path d="M1964 9588 c-5 -7 -2 -9 9 -5 9 3 18 -1 21 -10 5 -11 16 -14 41 -11
19 2 35 3 35 2 0 -1 -15 -12 -33 -23 -26 -16 -33 -27 -35 -57 -3 -41 -17 -73
-40 -90 -8 -6 -12 -16 -8 -22 4 -7 2 -12 -4 -12 -6 0 -13 7 -16 15 -4 10 -13
13 -26 9 -14 -4 -18 -2 -14 5 7 10 -12 16 -42 12 -8 -1 -16 7 -19 17 -9 35
-57 33 -182 -7 -19 -6 -30 -7 -25 -2 5 5 32 16 59 25 70 22 97 43 90 67 -4 11
-2 19 5 19 6 0 10 6 8 14 -2 7 8 23 22 35 l25 22 -105 -4 c-324 -15 -705 -163
-978 -380 -75 -60 -86 -73 -87 -97 0 -9 -9 -15 -22 -15 -27 -1 -94 -64 -199
-187 -250 -292 -396 -636 -434 -1023 -8 -77 -10 -849 -8 -2590 l3 -2480 46 80
c58 101 95 168 125 225 16 29 22 36 19 20 -2 -14 -11 -61 -20 -105 -34 -180
-65 -547 -65 -772 l0 -42 -55 -17 -55 -18 0 -1093 0 -1093 3918 0 c3827 0
3920 1 4042 20 152 23 293 59 408 104 574 222 1020 721 1171 1311 45 176 53
244 58 521 l5 271 -146 47 c-206 66 -308 106 -303 120 2 6 12 37 21 68 10 36
31 74 55 102 36 42 39 50 46 127 4 46 13 99 21 119 12 33 13 27 14 -80 l1
-115 20 44 c10 24 28 80 40 124 20 78 55 153 83 176 11 9 23 0 57 -40 24 -29
54 -64 66 -78 l22 -26 1 1278 0 1278 -40 -23 c-22 -13 -40 -29 -40 -35 0 -7
-9 -13 -20 -13 -25 0 -27 -20 -2 -20 14 -1 12 -3 -6 -13 -12 -7 -19 -16 -16
-20 4 -4 -1 -7 -10 -7 -13 0 -16 -5 -12 -17 6 -15 5 -15 -13 1 -19 18 -20 17
-18 -2 0 -11 5 -18 10 -15 20 12 -16 -39 -51 -73 -20 -20 -36 -40 -34 -45 1
-5 -2 -9 -8 -9 -5 0 -10 -8 -10 -17 0 -14 2 -15 9 -5 7 11 9 11 14 -2 4 -9 2
-16 -3 -16 -5 0 -7 -7 -4 -15 4 -8 2 -15 -4 -15 -6 0 -13 6 -15 13 -3 7 -6 5
-6 -5 -1 -10 -5 -18 -10 -18 -5 0 -13 -9 -16 -20 -4 -11 -11 -17 -17 -14 -8 5
-9 1 -5 -10 8 -21 -26 -61 -43 -51 -9 5 -10 1 -5 -14 3 -11 2 -21 -3 -21 -5 0
-15 -19 -22 -41 -8 -23 -27 -54 -42 -69 -15 -16 -28 -35 -28 -44 0 -8 -5 -18
-11 -21 -6 -4 -8 -13 -5 -21 3 -8 1 -14 -5 -14 -6 0 -7 -4 -4 -10 3 -5 -2 -10
-11 -10 -10 0 -15 -3 -11 -6 10 -11 -82 -84 -98 -78 -8 4 -15 2 -15 -3 0 -5
-18 -7 -41 -5 -59 6 -63 -4 -38 -82 l22 -67 -22 -46 c-26 -54 -19 -70 15 -28
14 18 27 26 32 20 20 -23 116 -261 167 -416 52 -161 117 -402 130 -484 5 -37
1 -46 -51 -120 -31 -44 -94 -136 -140 -205 -90 -136 -213 -293 -364 -465 -53
-60 -129 -154 -168 -207 -87 -117 -147 -171 -206 -188 -43 -12 -188 -11 -201
1 -3 4 3 28 13 55 52 131 243 743 241 769 0 6 -52 -141 -114 -325 -62 -184
-126 -369 -142 -410 -17 -41 -56 -142 -88 -225 -157 -408 -293 -637 -491 -825
-208 -198 -555 -459 -1014 -764 -227 -151 -353 -222 -666 -377 l-300 -149
-730 0 -729 0 -180 101 c-99 55 -200 112 -225 126 -25 15 -58 33 -75 41 -16 8
-41 23 -55 32 -14 9 -61 36 -105 60 -44 24 -181 104 -305 178 -124 74 -328
195 -454 269 -126 73 -264 158 -308 188 -44 30 -82 55 -84 55 -10 0 -189 136
-248 188 -33 29 -62 52 -66 52 -4 0 -13 -18 -20 -40 -7 -22 -16 -40 -19 -39
-37 4 -121 99 -89 99 8 0 21 11 28 25 10 19 16 22 27 14 29 -25 9 5 -57 87
-66 80 -150 197 -150 207 0 3 -16 29 -36 58 -20 30 -70 121 -110 202 -72 147
-88 186 -203 492 -67 181 -130 334 -131 321 0 -4 25 -83 55 -174 30 -91 55
-169 55 -173 0 -4 -29 -15 -65 -24 -74 -20 -173 -17 -220 8 -51 26 -179 164
-187 200 -15 71 -20 247 -9 357 18 175 106 588 140 647 5 9 12 -13 20 -59 26
-143 106 -441 140 -518 14 -31 11 17 -19 270 -14 122 -20 239 -20 388 l0 213
88 185 87 186 8 -58 c15 -109 18 -115 32 -64 64 236 267 511 488 660 103 70
126 76 97 28 -24 -42 -79 -179 -96 -243 -25 -87 -44 -264 -44 -399 0 -199 33
-382 101 -558 l30 -78 58 7 c67 6 107 -10 135 -57 33 -57 11 -133 -44 -152
-10 -3 -5 -16 20 -47 87 -107 256 -209 385 -232 97 -17 273 -6 350 21 197 70
340 210 445 434 88 186 123 415 102 668 -12 147 -45 306 -81 391 -11 26 -19
47 -17 47 2 0 20 -15 39 -32 57 -54 123 -143 142 -192 18 -46 29 -57 38 -33 3
9 12 8 36 -5 l31 -17 -15 36 c-8 19 -15 37 -15 39 0 13 25 -1 59 -31 l38 -35
-10 45 c-10 42 -9 47 16 73 23 24 25 31 17 67 -5 22 -10 43 -10 48 0 13 27 7
40 -9 8 -8 22 -20 32 -25 17 -9 18 -8 9 9 -6 11 -23 31 -39 44 -44 37 -49 50
-15 42 26 -6 24 -2 -22 39 -53 49 -46 60 20 33 19 -8 35 -13 35 -11 0 11 -153
126 -200 150 -30 15 -65 34 -77 42 l-22 15 24 48 25 49 37 -11 c38 -10 239
-99 274 -121 14 -9 19 -24 20 -57 1 -74 15 -93 23 -32 8 60 19 64 73 31 19
-12 36 -19 39 -16 3 2 -18 19 -46 37 -57 36 -54 22 -25 168 7 34 10 63 6 63
-16 3 -47 -4 -58 -13 -8 -7 -13 -37 -13 -84 0 -41 -2 -74 -4 -74 -6 0 -299
139 -304 145 -5 4 136 274 154 295 7 8 12 17 11 20 -2 5 107 208 213 400 26
47 64 116 84 153 21 38 40 66 42 64 3 -2 -7 -47 -21 -98 -140 -514 -152 -566
-162 -693 -6 -82 -5 -89 11 -83 10 4 22 7 27 7 5 0 9 9 9 19 0 11 5 23 10 26
6 4 8 10 5 14 -2 5 4 16 15 26 31 28 44 84 31 131 -9 35 -9 37 4 20 8 -11 16
-18 18 -15 2 2 27 76 56 164 66 204 114 323 202 499 125 249 344 602 550 888
45 62 93 130 108 150 30 43 41 47 41 16 0 -12 6 -49 14 -82 8 -34 27 -113 41
-176 102 -445 239 -833 394 -1115 78 -142 403 -601 466 -660 6 -5 28 -31 48
-57 l37 -46 -81 -47 c-44 -26 -78 -49 -77 -51 5 -4 59 16 123 46 46 22 51 22
77 7 27 -16 28 -15 18 3 -5 10 -10 21 -10 23 0 11 166 78 340 138 82 28 85 29
103 11 18 -18 13 -21 -160 -107 -98 -48 -218 -112 -266 -141 -49 -30 -90 -54
-93 -54 -8 0 -94 -73 -90 -77 2 -2 23 6 47 17 51 23 89 26 89 7 0 -7 -18 -31
-40 -52 -22 -21 -40 -43 -40 -49 0 -5 3 -6 7 -3 11 12 32 -14 26 -31 -3 -9
-17 -31 -29 -49 -30 -40 -30 -45 1 -31 32 14 41 5 27 -26 -9 -19 -8 -27 4 -36
19 -17 17 -47 -6 -97 -10 -24 -17 -43 -14 -43 3 0 50 45 104 99 91 90 205 189
270 234 14 9 36 24 48 34 l24 17 -17 -40 c-77 -175 -110 -380 -102 -628 5
-169 18 -254 56 -373 l19 -58 41 3 c53 4 143 -24 171 -53 13 -14 23 -42 27
-74 6 -51 5 -54 -28 -82 -19 -16 -44 -29 -56 -29 -42 0 -24 -31 75 -129 80
-80 112 -105 182 -140 131 -64 262 -85 382 -60 114 23 166 46 274 121 223 153
388 442 445 779 30 177 24 429 -14 573 -15 55 -32 103 -38 107 -14 8 -49 -20
-49 -39 0 -7 -4 -10 -10 -7 -5 3 -10 -1 -10 -9 0 -8 -7 -19 -17 -24 -14 -8
-19 -23 -22 -69 -1 -7 -7 -13 -14 -13 -8 0 -13 -11 -12 -28 0 -15 -6 -33 -13
-41 -10 -11 -11 -16 -2 -21 9 -6 9 -9 -1 -13 -9 -4 -8 -6 5 -6 11 -1 16 -6 13
-15 -3 -7 0 -19 6 -25 8 -8 7 -11 -3 -11 -10 0 -9 -5 4 -19 10 -11 15 -24 12
-30 -4 -5 -2 -12 4 -16 5 -3 10 -11 10 -16 0 -6 -4 -7 -10 -4 -5 3 -10 0 -10
-9 0 -8 5 -16 12 -18 6 -2 10 -20 9 -39 -1 -18 -2 -41 -3 -49 -1 -20 -18 -41
-28 -35 -4 3 -11 -6 -14 -20 -4 -14 -12 -24 -19 -22 -6 1 -11 -5 -9 -14 1 -10
-6 -19 -18 -22 -11 -3 -20 0 -21 6 0 7 -4 2 -10 -11 -5 -15 -13 -21 -21 -16
-7 4 -10 4 -6 -1 9 -9 -9 -35 -23 -35 -5 0 -9 8 -10 18 0 12 -3 10 -12 -8 -17
-37 -39 -58 -45 -42 -5 17 -19 15 -26 -4 -3 -8 -2 -12 4 -9 6 3 10 1 10 -4 0
-14 -13 -14 -28 1 -9 9 -12 9 -12 -1 0 -10 -3 -11 -14 -2 -10 9 -16 9 -21 1
-10 -16 -35 7 -35 32 0 15 5 18 17 14 9 -4 5 5 -11 19 -15 14 -24 30 -21 35 3
6 1 10 -5 10 -8 0 -9 -11 -5 -32 l7 -33 -21 19 c-12 11 -24 16 -28 13 -3 -4
-4 -7 0 -7 13 0 -77 -82 -100 -91 -28 -10 -93 5 -93 22 0 5 -4 9 -10 9 -21 0
-9 -27 22 -50 l32 -23 -25 -9 c-42 -16 -151 12 -121 31 6 3 3 13 -6 21 -14 13
-15 12 -9 -3 3 -9 3 -17 -2 -17 -9 0 -51 44 -51 54 0 4 -6 14 -14 22 -34 33
-96 297 -75 319 5 5 9 20 8 35 l-1 25 -8 -25 c-8 -24 -8 -24 -9 -2 -1 12 -6
22 -12 22 -7 0 -9 -11 -5 -30 3 -18 1 -30 -5 -30 -5 0 -9 19 -7 44 2 24 6 42
11 39 4 -2 7 5 7 17 0 12 5 18 10 15 6 -3 10 3 10 14 0 12 6 21 14 21 15 0 11
-34 -6 -57 -5 -7 -5 -14 0 -17 11 -7 22 16 22 45 0 10 4 19 8 19 8 0 37 70 34
82 -1 4 5 5 12 2 9 -3 17 3 21 15 3 12 13 21 21 21 8 0 14 9 14 20 0 11 -4 20
-10 20 -5 0 -10 -5 -10 -11 0 -13 -38 -49 -52 -49 -14 0 -9 18 8 24 8 3 13 10
10 15 -3 5 4 11 15 14 13 4 18 10 14 18 -8 12 -7 12 38 -10 25 -13 38 -41 18
-41 -5 0 -11 -11 -13 -25 -7 -34 8 -32 27 4 8 16 19 31 25 33 6 2 12 12 14 23
1 11 12 24 24 30 12 5 22 14 22 19 0 4 7 3 15 -4 8 -7 15 -8 15 -3 0 5 -11 15
-25 21 -17 8 -23 17 -19 29 3 11 -4 7 -19 -11 -18 -20 -30 -26 -45 -22 -12 4
-26 0 -36 -10 -19 -19 -21 -18 -31 15 -7 23 -6 24 26 17 26 -5 31 -4 21 6 -7
7 -12 19 -12 27 0 12 3 12 12 3 7 -7 18 -12 26 -12 12 0 12 3 2 15 -7 9 -10
18 -6 22 3 3 6 2 6 -4 0 -6 7 -14 16 -17 9 -4 13 -2 8 5 -4 6 0 16 7 21 11 8
10 9 -3 4 -25 -8 -22 10 4 28 28 20 39 20 32 1 -4 -8 -2 -15 4 -15 6 0 12 4
14 9 2 4 14 12 28 16 22 7 23 6 11 -9 -12 -14 -10 -15 20 -10 19 4 39 11 44
17 7 7 6 8 -2 3 -7 -4 -13 -5 -13 -2 0 3 10 10 21 17 16 8 23 8 29 -1 5 -8 11
-7 22 4 9 8 18 13 21 10 9 -10 47 6 44 19 -1 6 7 12 18 14 11 3 27 7 35 10 8
3 22 7 30 9 8 2 22 11 30 21 8 10 34 31 58 46 24 16 72 57 107 93 35 35 69 64
74 64 6 0 11 5 11 11 0 17 96 109 115 109 15 0 15 1 1 16 -43 42 -212 88 -372
100 l-91 7 -17 64 c-9 36 -15 67 -12 70 16 17 866 243 911 243 12 0 28 -6 35
-14 11 -15 27 -5 86 52 7 6 15 12 19 12 10 0 35 28 35 39 0 6 9 11 20 11 11 0
20 7 20 15 0 8 6 15 14 15 8 0 18 9 21 20 3 11 14 20 23 20 24 1 52 24 52 44
0 10 5 14 10 11 6 -3 10 -2 10 3 0 5 11 8 25 7 23 -3 30 5 26 28 -1 5 3 5 9 2
7 -4 14 2 17 13 3 11 12 23 20 26 11 4 13 2 10 -9 -4 -8 -2 -17 3 -20 6 -4 10
-2 10 2 0 5 7 18 16 29 8 10 13 13 9 7 -12 -25 10 -13 29 15 14 21 25 28 42
24 14 -2 24 0 24 7 0 7 -4 9 -10 6 -5 -3 -10 -1 -10 4 0 16 16 13 33 -4 10
-10 17 -11 19 -4 2 7 18 12 36 13 24 1 31 5 27 17 -7 22 22 46 37 31 16 -16
31 -15 22 1 -5 8 -2 8 9 -2 14 -11 17 -11 18 0 0 9 3 7 8 -4 6 -17 9 -16 36 7
23 20 39 25 77 24 27 -1 53 3 60 10 6 6 17 8 24 5 10 -4 12 0 8 11 -4 11 -1
16 11 16 9 0 14 -4 10 -9 -8 -14 14 -24 28 -13 7 5 22 8 34 7 12 -1 21 3 20 9
-2 11 24 17 88 19 28 2 44 8 52 22 11 18 12 18 13 3 0 -10 4 -18 9 -18 5 0 7
10 5 23 -2 12 -2 16 2 10 3 -7 10 -13 15 -13 6 0 7 5 3 11 -4 7 -1 10 7 7 8
-3 13 -11 11 -17 -1 -7 2 -10 8 -6 5 3 10 1 10 -6 0 -7 3 -10 6 -7 3 4 0 17
-7 30 -6 12 -8 20 -4 16 5 -4 14 -3 22 3 10 9 13 8 13 -4 0 -15 28 -32 38 -22
3 3 0 5 -6 5 -7 0 -12 4 -12 8 0 11 40 29 58 26 6 -1 17 -2 23 -3 6 0 9 -8 5
-16 -3 -8 -1 -15 5 -15 6 0 13 9 16 20 4 16 8 18 19 9 12 -10 14 84 14 616 0
568 -1 627 -16 621 -9 -3 -20 -6 -25 -6 -5 0 -8 -4 -7 -8 2 -4 -10 -21 -25
-36 -16 -16 -25 -31 -20 -35 14 -11 39 -45 26 -38 -6 4 -13 1 -16 -5 -3 -10
-7 -10 -20 0 -13 11 -16 10 -22 -7 -4 -12 -12 -18 -21 -14 -17 6 -20 -32 -3
-42 6 -4 8 -13 5 -21 -3 -8 8 -51 24 -97 40 -114 70 -227 61 -227 -9 0 -60
110 -85 184 -23 66 -67 159 -80 168 -17 12 -28 9 -20 -4 4 -7 -2 -5 -13 5 -12
10 -33 19 -47 21 -15 2 -32 8 -38 14 -7 7 -17 12 -22 12 -6 0 -19 14 -28 30
-17 29 -45 39 -64 21 -17 -16 -358 -115 -349 -102 5 9 103 57 175 86 25 10 63
26 85 36 22 9 55 20 72 24 45 9 58 32 40 68 -6 13 -15 17 -30 13 -29 -7 -56 8
-32 18 14 5 15 9 5 21 -18 21 13 21 34 -1 15 -14 16 -14 16 1 0 9 9 19 20 22
20 5 20 7 4 24 -16 18 -16 19 9 19 29 0 44 15 25 26 -8 5 -5 10 10 15 l21 8
-25 93 c-14 51 -36 129 -49 172 -14 44 -23 81 -22 83 5 4 64 -124 97 -212 41
-110 43 -112 69 -86 25 25 35 26 54 6 8 -8 17 -12 20 -9 11 11 46 -7 41 -21
-7 -16 31 -39 48 -29 8 5 9 2 5 -10 -6 -15 -3 -17 18 -12 24 6 28 0 24 -30 -2
-13 23 -21 47 -16 24 4 24 4 24 137 0 215 -29 430 -81 608 -14 49 -25 67 -37
67 -13 0 -14 2 -4 9 10 6 8 21 -11 72 -100 265 -309 553 -550 757 -303 257
-660 407 -1048 442 -174 15 -5896 14 -5905 -2z m6170 -184 c21 -8 21 -53 0
-61 -23 -8 -47 20 -39 46 7 22 14 25 39 15z m-5604 -94 c0 -11 -6 -20 -14 -20
-18 0 -29 16 -21 30 11 18 35 11 35 -10z m-390 -10 c0 -5 -2 -10 -4 -10 -3 0
-8 5 -11 10 -3 6 -1 10 4 10 6 0 11 -4 11 -10z m1200 -49 c0 -6 -4 -13 -10
-16 -5 -3 -10 1 -10 9 0 9 5 16 10 16 6 0 10 -4 10 -9z m1069 -38 c-15 -18
-34 -1 -25 22 5 14 9 15 21 5 12 -10 13 -16 4 -27z m-1212 -124 c14 -14 6 -39
-12 -39 -18 0 -28 17 -21 35 6 18 18 19 33 4z m5783 -37 c0 -13 -12 -22 -22
-16 -10 6 -1 24 13 24 5 0 9 -4 9 -8z m-5975 -31 c7 -12 -12 -24 -25 -16 -11
7 -4 25 10 25 5 0 11 -4 15 -9z m5795 -31 c0 -5 -2 -10 -4 -10 -3 0 -8 5 -11
10 -3 6 -1 10 4 10 6 0 11 -4 11 -10z m-1650 -39 c0 -27 -19 -36 -37 -18 -18
18 -9 37 18 37 12 0 19 -7 19 -19z m-6510 -36 c0 -8 -4 -15 -10 -15 -5 0 -10
7 -10 15 0 8 5 15 10 15 6 0 10 -7 10 -15z m7150 5 c0 -5 -5 -10 -11 -10 -5 0
-7 5 -4 10 3 6 8 10 11 10 2 0 4 -4 4 -10z m-5141 -24 c9 -10 8 -16 -4 -26
-19 -16 -41 1 -32 24 8 20 21 20 36 2z m1167 -6 c19 7 26 5 34 -10 5 -10 17
-26 26 -34 13 -14 14 -17 1 -22 -12 -4 -13 -12 -7 -35 6 -21 5 -33 -6 -43 -8
-8 -14 -22 -14 -32 0 -13 -3 -14 -13 -5 -8 6 -16 9 -19 6 -8 -8 -70 17 -90 37
-24 24 -24 83 1 100 10 7 21 24 26 37 6 21 9 22 22 8 12 -11 22 -13 39 -7z
m179 -189 c3 -5 1 -12 -5 -16 -5 -3 -10 1 -10 9 0 18 6 21 15 7z m-3115 -10
c0 -6 -4 -13 -10 -16 -5 -3 -10 1 -10 9 0 9 5 16 10 16 6 0 10 -4 10 -9z
m3667 -7 c7 -18 -17 -38 -31 -24 -11 11 -1 40 14 40 6 0 13 -7 17 -16z m-3909
-35 c-2 -6 -8 -10 -13 -10 -5 0 -11 4 -13 10 -2 6 4 11 13 11 9 0 15 -5 13
-11z m2392 -100 c0 -12 -29 -24 -37 -16 -3 4 -3 13 0 21 6 16 37 11 37 -5z
m958 -170 c-2 -6 -8 -10 -13 -10 -5 0 -11 4 -13 10 -2 6 4 11 13 11 9 0 15 -5
13 -11z m-2143 -59 c-5 -8 -11 -8 -17 -2 -6 6 -7 16 -3 22 5 8 11 8 17 2 6 -6
7 -16 3 -22z m2175 11 c0 -14 -18 -23 -30 -16 -6 4 -8 11 -5 16 8 12 35 12 35
0z m2290 -76 c0 -8 -7 -15 -15 -15 -8 0 -15 7 -15 15 0 8 7 15 15 15 8 0 15
-7 15 -15z m-4375 -25 c0 -7 -6 -15 -12 -17 -8 -3 -13 4 -13 17 0 13 5 20 13
18 6 -3 12 -11 12 -18z m6171 -31 c10 -17 -13 -36 -27 -22 -12 12 -4 33 11 33
5 0 12 -5 16 -11z m-2598 -57 c3 -16 -2 -22 -17 -22 -24 0 -35 15 -27 36 9 23
40 13 44 -14z m622 4 c0 -3 -4 -8 -10 -11 -5 -3 -10 -1 -10 4 0 6 5 11 10 11
6 0 10 -2 10 -4z m1078 -45 c19 -11 11 -45 -11 -49 -19 -4 -32 20 -23 43 6 17
15 19 34 6z m87 -112 c0 -17 -6 -25 -21 -27 -31 -4 -47 20 -34 53 10 26 12 26
33 12 12 -8 22 -25 22 -38z m1955 21 c0 -5 -4 -10 -10 -10 -5 0 -10 5 -10 10
0 6 5 10 10 10 6 0 10 -4 10 -10z m-6880 -10 c0 -5 -5 -10 -11 -10 -5 0 -7 5
-4 10 3 6 8 10 11 10 2 0 4 -4 4 -10z m4167 -76 c8 -21 -13 -42 -28 -27 -13
13 -5 43 11 43 6 0 13 -7 17 -16z m-5097 -18 c0 -11 -19 -15 -25 -6 -3 5 1 10
9 10 9 0 16 -2 16 -4z m5481 -39 c-1 -12 -15 -9 -19 4 -3 6 1 10 8 8 6 -3 11
-8 11 -12z m2159 -17 c0 -5 -4 -10 -10 -10 -5 0 -10 5 -10 10 0 6 5 10 10 10
6 0 10 -4 10 -10z m-5900 -220 c-13 -24 -23 -25 -40 -5 -19 22 5 48 31 34 15
-8 17 -14 9 -29z m-2410 5 c0 -8 -6 -15 -14 -15 -17 0 -28 14 -19 24 12 12 33
6 33 -9z m2018 -14 c19 -11 11 -45 -11 -49 -19 -4 -32 20 -23 43 6 17 15 19
34 6z m4237 -121 c4 -6 1 -18 -6 -26 -11 -13 -14 -13 -27 0 -8 8 -11 19 -8 25
9 14 33 14 41 1z m-6725 -71 c0 -12 -29 -24 -37 -16 -3 4 -3 13 0 21 6 16 37
11 37 -5z m2190 -27 c0 -13 -23 -32 -37 -32 -19 0 -27 28 -13 45 9 11 17 12
31 4 10 -5 19 -13 19 -17z m678 -33 c-2 -6 -8 -10 -13 -10 -5 0 -11 4 -13 10
-2 6 4 11 13 11 9 0 15 -5 13 -11z m5927 1 c3 -5 2 -10 -4 -10 -5 0 -13 5 -16
10 -3 6 -2 10 4 10 5 0 13 -4 16 -10z m65 0 c0 -5 -5 -10 -11 -10 -5 0 -7 5
-4 10 3 6 8 10 11 10 2 0 4 -4 4 -10z m-4293 -87 c20 -26 -6 -73 -41 -73 -42
0 -59 40 -33 81 14 23 54 19 74 -8z m4690 -65 c-2 -7 0 -22 6 -33 9 -18 8 -19
-7 -4 -10 9 -14 22 -10 32 7 19 18 24 11 5z m-8881 -39 c3 -6 0 -17 -7 -25
-18 -17 -44 -2 -36 20 7 18 33 21 43 5z m3124 -75 c0 -19 -28 -30 -42 -16 -5
5 -7 19 -3 31 5 17 10 19 26 11 10 -6 19 -17 19 -26z m-970 11 c10 -12 10 -18
0 -30 -24 -29 -58 -7 -44 30 4 8 12 15 19 15 7 0 18 -7 25 -15z m1517 -80 c7
-20 -2 -29 -21 -22 -9 4 -13 13 -10 22 8 19 23 19 31 0z m2278 -123 c97 -60
565 -379 655 -446 111 -83 298 -243 390 -336 56 -55 160 -181 250 -300 84
-113 160 -211 167 -218 21 -22 15 -28 -29 -30 -211 -11 -448 -60 -768 -158
-47 -14 -92 -28 -101 -31 -13 -4 -22 20 -49 124 -103 401 -199 646 -385 978
-66 118 -236 400 -300 498 l-18 28 49 -27 c27 -14 90 -52 139 -82z m-1675 28
c0 -5 -5 -10 -11 -10 -5 0 -7 5 -4 10 3 6 8 10 11 10 2 0 4 -4 4 -10z m3035
-48 c0 -18 -20 -15 -23 4 -3 10 1 15 10 12 7 -3 13 -10 13 -16z m1575 -90 c0
-15 -2 -15 -10 -2 -13 20 -13 33 0 25 6 -3 10 -14 10 -23z m-1610 -136 c0 -20
-19 -31 -32 -18 -6 6 -7 15 -4 21 10 16 36 13 36 -3z m-4675 -54 c0 -18 -20
-15 -23 4 -3 10 1 15 10 12 7 -3 13 -10 13 -16z m3890 -11 c7 -12 -12 -24 -25
-16 -11 7 -4 25 10 25 5 0 11 -4 15 -9z m-5907 -39 c4 -28 -24 -41 -44 -20
-20 20 -7 50 20 46 13 -2 22 -12 24 -26z m7822 -12 c0 -5 -4 -10 -10 -10 -5 0
-10 5 -10 10 0 6 5 10 10 10 6 0 10 -4 10 -10z m66 -177 c-10 -10 -19 5 -10
18 6 11 8 11 12 0 2 -7 1 -15 -2 -18z m-8428 -28 c4 -35 -10 -49 -42 -41 -30
7 -37 33 -18 63 19 30 56 17 60 -22z m3348 -56 c10 -17 -13 -36 -27 -22 -12
12 -4 33 11 33 5 0 12 -5 16 -11z m4334 -79 c0 -5 -4 -10 -10 -10 -5 0 -10 5
-10 10 0 6 5 10 10 10 6 0 10 -4 10 -10z m-6231 -136 c-17 -45 -94 -335 -124
-469 -15 -66 -30 -123 -34 -126 -9 -10 -134 25 -139 39 -5 17 296 597 306 587
1 -1 -2 -15 -9 -31z m3333 -156 c189 -268 380 -480 638 -708 46 -41 99 -89
118 -105 l34 -30 -113 -44 c-62 -24 -151 -61 -197 -83 -47 -22 -88 -36 -93
-31 -4 4 -91 172 -192 373 -160 317 -191 387 -239 535 -30 94 -58 188 -62 210
-8 47 -15 56 106 -117z m3488 122 c8 -5 11 -10 5 -10 -5 0 -17 5 -25 10 -8 5
-10 10 -5 10 6 0 17 -5 25 -10z m-5525 -70 c-5 -8 -11 -8 -17 -2 -6 6 -7 16
-3 22 5 8 11 8 17 2 6 -6 7 -16 3 -22z m-2363 -115 c0 -5 -5 -11 -11 -13 -6
-2 -11 4 -11 13 0 9 5 15 11 13 6 -2 11 -8 11 -13z m4208 -5 c0 -5 -2 -10 -4
-10 -3 0 -8 5 -11 10 -3 6 -1 10 4 10 6 0 11 -4 11 -10z m-2642 -232 c18 -15
15 -52 -7 -72 -14 -13 -24 -14 -43 -7 -32 12 -41 47 -21 78 16 24 41 24 71 1z
m-1265 -9 c23 -37 -25 -68 -52 -35 -9 11 -10 20 -1 36 13 24 38 23 53 -1z
m777 11 c0 -5 -4 -10 -10 -10 -5 0 -10 5 -10 10 0 6 5 10 10 10 6 0 10 -4 10
-10z m350 -126 c0 -20 -30 -30 -40 -13 -11 17 7 40 26 32 8 -3 14 -12 14 -19z
m-239 3 c-1 -12 -15 -9 -19 4 -3 6 1 10 8 8 6 -3 11 -8 11 -12z m-359 -53 l70
-16 -6 -42 c-3 -22 -13 -88 -21 -145 -7 -57 -18 -107 -22 -111 -4 -4 -35 -15
-68 -25 -33 -9 -102 -38 -152 -64 -51 -27 -93 -47 -93 -47 0 1 27 62 61 136
52 116 95 217 130 308 10 26 11 26 101 6z m1533 -204 c4 -6 1 -18 -6 -26 -11
-13 -14 -13 -27 0 -8 8 -11 19 -8 25 9 14 33 14 41 1z m-3389 -32 c3 -5 3 -20
0 -34 -7 -28 -37 -32 -56 -9 -20 24 2 65 30 58 11 -3 23 -10 26 -15z m9464 8
c0 -3 -4 -8 -10 -11 -5 -3 -10 -1 -10 4 0 6 5 11 10 11 6 0 10 -2 10 -4z
m-120 -80 c0 -8 -7 -16 -15 -20 -12 -4 -13 -2 -2 14 14 24 17 25 17 6z m-7321
-215 c17 -11 7 -41 -13 -41 -19 0 -29 17 -22 35 6 17 15 18 35 6z m-491 -43
c-6 -18 -28 -21 -28 -4 0 9 7 16 16 16 9 0 14 -5 12 -12z m7652 -8 c0 -5 -2
-10 -4 -10 -3 0 -8 5 -11 10 -3 6 -1 10 4 10 6 0 11 -4 11 -10z m-145 -250 c3
-5 1 -10 -4 -10 -6 0 -11 5 -11 10 0 6 2 10 4 10 3 0 8 -4 11 -10z m-8685
-120 c0 -5 -4 -10 -10 -10 -5 0 -10 5 -10 10 0 6 5 10 10 10 6 0 10 -4 10 -10z
m6490 -12 c0 -6 -9 -8 -21 -5 -20 5 -20 5 -3 -14 9 -10 14 -19 10 -19 -15 0
-44 45 -34 51 14 9 48 -1 48 -13z m-4386 -63 c-4 -8 -1 -15 5 -15 6 0 11 5 11
11 0 13 30 -18 67 -67 l21 -29 10 25 c7 16 11 19 11 9 1 -18 21 -29 52 -29 17
0 19 -8 19 -72 0 -40 5 -115 10 -166 9 -83 8 -100 -10 -154 -36 -109 -78 -158
-135 -158 -38 1 -55 14 -90 70 -34 54 -53 122 -60 220 -5 61 -11 80 -31 100
l-24 25 0 -80 c1 -115 25 -219 68 -289 l25 -40 -32 25 c-44 35 -99 149 -112
237 -12 85 -1 178 28 221 10 14 25 42 35 61 16 33 17 33 11 6 -5 -25 -3 -28
11 -23 10 4 23 7 30 7 7 0 21 17 32 38 34 67 64 109 48 67z m4209 -66 c5 -4 7
-15 2 -25 -7 -18 -8 -18 -15 1 -5 11 -9 29 -9 40 1 14 2 16 6 5 3 -8 10 -18
16 -21z m-4038 1 c3 -5 1 -10 -4 -10 -6 0 -11 5 -11 10 0 6 2 10 4 10 3 0 8
-4 11 -10z m3945 -201 c0 -13 4 -18 12 -13 7 4 8 3 4 -5 -6 -9 -11 -9 -22 0
-16 13 -19 39 -4 39 6 0 10 -9 10 -21z m40 -29 c0 -5 -5 -10 -11 -10 -5 0 -7
5 -4 10 3 6 8 10 11 10 2 0 4 -4 4 -10z m885 -200 c3 -5 1 -10 -4 -10 -6 0
-11 5 -11 10 0 6 2 10 4 10 3 0 8 -4 11 -10z m-295 -144 c0 -3 -4 -8 -10 -11
-5 -3 -10 -1 -10 4 0 6 5 11 10 11 6 0 10 -2 10 -4z m-4813 -219 c7 -5 48 -8
92 -6 46 3 77 0 74 -5 -4 -5 4 -7 15 -4 12 4 22 2 22 -4 0 -6 11 -7 25 -4 17
4 31 1 40 -8 17 -16 9 -25 -43 -46 -18 -7 -31 -15 -29 -19 30 -54 39 -91 34
-138 -4 -37 -2 -53 6 -53 21 1 123 46 157 70 26 18 32 20 27 7 -4 -12 -2 -14
10 -10 11 4 14 3 9 -6 -11 -17 2 -61 17 -61 21 0 28 -111 8 -118 -9 -3 -11 0
-6 8 6 9 3 9 -14 1 -24 -13 -25 -17 -9 -27 7 -5 8 -3 3 6 -5 8 -3 11 4 9 18
-6 9 -24 -10 -23 -10 0 -15 -5 -13 -11 7 -16 -76 -53 -111 -49 -19 2 -25 0
-16 -5 20 -13 -75 -31 -157 -31 -37 1 -92 7 -122 14 -69 16 -172 65 -165 77 4
5 -2 6 -11 2 -13 -5 -16 -3 -11 10 5 14 2 16 -17 11 -14 -3 -27 -1 -31 7 -6 8
-4 10 5 4 9 -5 11 -4 6 3 -4 7 -13 12 -20 12 -7 0 -27 12 -44 27 -30 24 -31
27 -16 44 9 10 16 34 16 53 0 24 5 36 14 36 8 0 14 5 14 10 0 6 6 10 13 10 8
0 13 12 13 29 0 18 -4 28 -10 25 -6 -3 1 5 17 18 15 13 27 29 27 36 0 7 5 12
11 12 5 0 7 5 4 10 -3 6 1 10 9 10 8 0 20 -8 26 -17 8 -14 10 -14 9 -3 -1 8
-1 26 0 40 1 20 3 22 11 10 7 -12 10 -8 11 15 0 19 3 25 7 15 4 -8 22 -16 39
-18 31 -2 32 -1 23 23 -8 20 -7 23 8 18 9 -3 23 -10 29 -16z m4479 -3 c39 -6
45 -9 29 -15 -13 -6 -6 -7 23 -4 38 4 59 -8 30 -17 -7 -3 3 -5 23 -6 20 -1 48
-6 63 -12 15 -5 39 -10 52 -10 17 0 23 -4 18 -12 -5 -8 -2 -9 10 -5 14 6 17 3
12 -8 -5 -13 -2 -14 17 -4 18 9 20 9 10 -2 -19 -20 -16 -33 5 -18 12 9 11 6
-3 -9 -11 -12 -51 -37 -88 -55 l-69 -34 30 -24 c50 -40 57 -64 33 -110 -11
-21 -19 -39 -16 -39 22 0 156 79 195 115 33 31 54 35 55 10 0 -15 6 -19 23
-17 17 3 21 -1 19 -15 -4 -30 -34 -66 -48 -58 -8 5 -10 4 -5 -3 8 -13 -6 -27
-82 -90 -30 -26 -56 -40 -63 -36 -7 4 -9 3 -6 -3 7 -11 -156 -87 -183 -85 -8
0 -36 -4 -62 -10 -49 -10 -172 -2 -164 11 3 4 -7 6 -22 3 -31 -4 -210 81 -219
104 -3 8 -10 11 -16 7 -6 -4 -8 0 -4 10 4 11 2 14 -9 10 -17 -6 -18 8 -1 27
10 12 9 12 -5 1 -20 -15 -31 -7 -62 48 -12 22 -15 36 -8 43 6 6 12 6 17 -3 6
-8 4 -10 -5 -4 -8 5 -11 3 -9 -4 7 -21 21 -17 43 12 18 24 19 30 7 49 -10 16
0 12 37 -15 27 -20 54 -37 60 -37 5 0 12 13 15 29 6 31 85 91 119 91 32 0 19
24 -33 58 -28 18 -48 36 -44 40 4 4 10 1 12 -5 3 -7 12 -13 21 -13 14 0 14 2
3 9 -7 5 -10 14 -6 21 6 9 9 9 16 -1 7 -11 9 -11 9 1 0 8 15 25 34 37 26 17
36 19 46 10 10 -9 11 -9 6 1 -11 18 5 14 20 -5 12 -16 13 -16 14 9 0 27 25 51
46 44 6 -3 33 -8 60 -12z m-4706 -173 c0 -6 -4 -13 -10 -16 -5 -3 -10 1 -10 9
0 9 5 16 10 16 6 0 10 -4 10 -9z m7168 -80 c-4 -31 -38 -40 -58 -16 -10 12
-10 21 -2 40 10 22 14 24 37 13 20 -9 25 -18 23 -37z m-2898 -33 c0 -6 -6 -5
-15 2 -8 7 -15 14 -15 16 0 2 7 1 15 -2 8 -4 15 -11 15 -16z m-5688 -230 c21
-17 6 -58 -20 -58 -28 0 -41 21 -31 48 9 25 27 28 51 10z m-552 -168 c0 -5 -4
-10 -10 -10 -5 0 -10 5 -10 10 0 6 5 10 10 10 6 0 10 -4 10 -10z m431 -255 c5
-38 19 -106 29 -149 11 -44 19 -80 17 -82 -2 -3 -153 -44 -161 -44 -6 0 78
376 92 410 3 8 8 -3 9 -25 2 -22 8 -71 14 -110z m197 -196 c-17 -11 -28 -2
-28 23 0 21 1 21 20 3 15 -14 17 -21 8 -26z m7912 21 c0 -4 -6 -13 -14 -19
-17 -14 -31 2 -22 24 5 15 36 10 36 -5z m-7716 -165 c-5 -12 -10 -13 -20 -4
-19 15 -18 19 6 19 13 0 18 -5 14 -15z m-526 -39 c5 -24 -10 -38 -31 -30 -17
6 -23 35 -10 48 12 12 38 1 41 -18z m8948 -97 c10 -17 -13 -36 -27 -22 -12 12
-4 33 11 33 5 0 12 -5 16 -11z m-424 -102 c3 -6 0 -23 -8 -39 -12 -22 -18 -26
-36 -19 -35 13 -43 34 -23 64 15 23 20 25 39 15 11 -6 24 -16 28 -21z m-8824
-418 c-2 -6 -8 -10 -13 -10 -5 0 -11 4 -13 10 -2 6 4 11 13 11 9 0 15 -5 13
-11z m8920 -80 c-2 -6 -8 -10 -13 -10 -5 0 -11 4 -13 10 -2 6 4 11 13 11 9 0
15 -5 13 -11z m-8870 -157 c2 -7 -3 -12 -12 -12 -9 0 -16 7 -16 16 0 17 22 14
28 -4z m162 -146 c0 -11 -19 -15 -25 -6 -3 5 1 10 9 10 9 0 16 -2 16 -4z
m8530 -317 c0 -5 -7 -9 -15 -9 -15 0 -20 12 -9 23 8 8 24 -1 24 -14z m-8562
-50 c-2 -6 -8 -10 -13 -10 -5 0 -11 4 -13 10 -2 6 4 11 13 11 9 0 15 -5 13
-11z m6990 -46 c5 -17 -26 -29 -40 -15 -6 6 -7 15 -3 22 9 14 37 9 43 -7z
m-5142 -24 c10 -17 -13 -36 -27 -22 -12 12 -4 33 11 33 5 0 12 -5 16 -11z
m-1336 -74 c0 -16 -27 -27 -36 -14 -3 5 -3 16 0 24 6 17 36 9 36 -10z m6190
-170 c0 -8 -7 -15 -15 -15 -8 0 -15 7 -15 15 0 8 7 15 15 15 8 0 15 -7 15 -15z
m477 0 c19 -13 21 -19 11 -40 -11 -24 -48 -35 -48 -14 0 5 -4 7 -10 4 -14 -9
-12 39 2 53 15 15 19 15 45 -3z m-4347 -150 c6 -8 22 -17 33 -21 12 -4 35 -17
50 -30 16 -13 35 -24 43 -24 8 0 60 -26 117 -58 56 -33 190 -106 297 -163
l195 -104 -354 -3 c-195 -1 -356 -1 -358 2 -2 2 -4 41 -5 87 -1 46 -5 89 -9
94 -13 18 -30 180 -19 183 5 2 3 10 -5 19 -17 16 -20 33 -6 33 5 0 14 -7 21
-15z m-400 -100 c0 -6 -6 -19 -13 -29 -12 -16 -16 -17 -35 -5 -25 16 -26 22
-12 49 9 17 14 18 35 8 14 -6 25 -16 25 -23z m3382 -3 c-7 -2 -10 -8 -7 -12 3
-5 -2 -37 -10 -72 -9 -34 -19 -82 -22 -107 -3 -25 -7 -53 -9 -61 -1 -8 -3 -23
-3 -32 -1 -20 -31 -25 -32 -5 0 9 -2 9 -6 0 -3 -10 -67 -13 -271 -12 l-267 0
85 42 c47 22 156 76 243 119 87 43 164 78 172 78 7 0 15 4 17 9 6 15 102 70
112 63 6 -3 5 -7 -2 -10z m-3004 -240 c2 -7 -3 -12 -12 -12 -9 0 -16 7 -16 16
0 17 22 14 28 -4z"/>
<path d="M2554 4392 c1 -17 19 -17 24 0 3 10 1 10 -6 -1 -9 -12 -11 -12 -14 0
-3 9 -5 10 -4 1z"/>
<path d="M2366 3513 c-3 -4 -6 -13 -6 -22 0 -21 -38 -64 -74 -83 l-28 -15 40
-31 c39 -31 136 -82 157 -82 7 0 11 28 11 69 0 54 4 75 19 91 22 24 15 32 -43
49 -23 6 -41 15 -38 19 6 9 -29 13 -38 5z"/>
<path d="M2205 3251 c3 -2 -1 -11 -8 -19 -9 -11 -4 -11 16 2 32 22 32 22 7 22
-10 0 -17 -2 -15 -5z"/>
<path d="M7367 3256 c-4 -9 -1 -18 5 -22 7 -5 8 -3 4 5 -5 8 -3 11 7 9 9 -2
16 2 17 7 2 16 -27 17 -33 1z"/>
<path d="M3341 74 c0 -11 3 -14 6 -6 3 7 2 16 -1 19 -3 4 -6 -2 -5 -13z"/>
<path d="M3311 44 c0 -11 3 -14 6 -6 3 7 2 16 -1 19 -3 4 -6 -2 -5 -13z"/>
<path d="M6192 200 c0 -14 2 -19 5 -12 2 6 2 18 0 25 -3 6 -5 1 -5 -13z"/>
<path d="M6176 135 c8 -37 14 -45 14 -19 0 10 -5 26 -10 34 -8 11 -9 7 -4 -15z"/>
<path d="M9581 7442 c-6 -12 -5 -23 5 -37 13 -17 14 -16 14 18 0 41 -5 46 -19
19z"/>
<path d="M9235 6059 c-4 -6 -5 -12 -2 -15 2 -3 7 2 10 11 7 17 1 20 -8 4z"/>
<path d="M9200 6050 c0 -5 5 -10 11 -10 5 0 7 5 4 10 -3 6 -8 10 -11 10 -2 0
-4 -4 -4 -10z"/>
<path d="M8940 5999 c0 -5 5 -7 10 -4 6 3 10 8 10 11 0 2 -4 4 -10 4 -5 0 -10
-5 -10 -11z"/>
<path d="M8795 5980 c-3 -6 1 -17 9 -26 15 -14 16 -13 16 10 0 26 -13 35 -25
16z"/>
<path d="M8720 5889 c0 -5 5 -7 10 -4 6 3 10 8 10 11 0 2 -4 4 -10 4 -5 0 -10
-5 -10 -11z"/>
<path d="M9576 5383 c-6 -14 -5 -15 5 -6 7 7 10 15 7 18 -3 3 -9 -2 -12 -12z"/>
<path d="M9540 5365 c-11 -13 -10 -14 4 -9 9 3 16 10 16 15 0 13 -6 11 -20 -6z"/>
<path d="M9390 5180 c-9 -6 -10 -10 -3 -10 6 0 15 5 18 10 8 12 4 12 -15 0z"/>
<path d="M9055 4630 c-3 -5 -1 -10 4 -10 6 0 11 5 11 10 0 6 -2 10 -4 10 -3 0
-8 -4 -11 -10z"/>
<path d="M7940 4605 c0 -5 38 -76 84 -159 77 -139 126 -251 126 -291 0 -9 5
-13 10 -10 6 3 10 31 10 61 0 58 4 63 32 37 17 -15 18 -15 18 8 0 25 16 57 23
49 2 -3 12 -18 21 -35 10 -16 14 -21 10 -10 -4 11 -9 47 -12 79 -4 52 -3 58
12 53 20 -8 21 11 1 37 -8 11 -15 29 -15 40 0 35 -41 108 -57 102 -8 -4 -19
-3 -25 0 -11 7 -46 11 -135 15 -29 1 -53 6 -53 11 0 5 -5 6 -10 3 -6 -4 -17
-1 -25 5 -8 7 -15 9 -15 5z"/>
<path d="M7085 4581 c-3 -5 -2 -12 3 -15 5 -3 9 1 9 9 0 17 -3 19 -12 6z"/>
<path d="M8856 4567 c3 -10 9 -15 12 -12 3 3 0 11 -7 18 -10 9 -11 8 -5 -6z"/>
<path d="M7170 4562 c0 -5 -13 -7 -30 -4 -28 4 -29 3 -23 -32 5 -34 4 -36 -20
-34 -16 1 -23 7 -20 15 3 7 0 13 -6 13 -6 0 -11 -5 -11 -11 0 -5 -4 -7 -10 -4
-5 3 -10 2 -10 -3 0 -5 11 -14 25 -20 25 -12 34 -32 14 -32 -5 0 -7 5 -3 11 5
8 -1 10 -20 7 -14 -3 -29 -2 -31 2 -3 5 -13 7 -23 6 -9 -2 -19 0 -22 4 -3 4
-16 3 -30 -3 -24 -10 -24 -10 13 -17 24 -5 47 -18 63 -38 15 -18 32 -28 40
-25 8 3 14 0 14 -6 0 -6 -5 -11 -11 -11 -6 0 4 -17 22 -38 62 -71 68 -80 75
-129 9 -65 23 -89 24 -40 0 24 5 37 13 37 22 0 27 -11 16 -32 -10 -18 -9 -18
11 -8 12 6 20 17 17 23 -15 41 -17 57 -8 57 23 0 10 15 -14 16 -14 1 -25 -2
-25 -7 0 -5 5 -9 10 -9 6 0 10 -6 10 -13 0 -7 -9 -13 -20 -13 -16 0 -19 5 -13
21 3 11 6 25 6 32 0 8 6 9 18 3 14 -8 17 -5 15 15 0 14 -7 25 -13 25 -7 0 -13
4 -13 10 0 5 8 7 18 3 13 -5 14 -3 5 7 -6 7 -9 18 -6 26 3 9 -2 12 -20 9 -23
-5 -25 -2 -25 35 0 22 -3 44 -6 48 -3 5 1 20 8 34 9 16 10 31 4 42 -6 10 -5
16 1 16 6 0 15 -10 22 -21 9 -17 8 -23 -2 -30 -19 -12 -20 -66 -1 -74 12 -4
13 -3 2 10 -8 10 -9 15 -2 15 7 0 9 7 5 17 -4 10 -2 14 4 10 6 -4 13 3 16 15
4 13 1 26 -6 30 -7 4 -8 8 -3 8 5 0 -1 9 -14 20 -26 22 -30 24 -30 12z m0 -36
c0 -6 -4 -17 -9 -25 -6 -9 -10 -4 -13 17 -3 22 -1 29 9 25 7 -3 13 -10 13 -17z
m-55 -56 c3 -5 1 -10 -4 -10 -6 0 -11 5 -11 10 0 6 2 10 4 10 3 0 8 -4 11 -10z
m30 -30 c-3 -5 -11 -10 -16 -10 -6 0 -7 5 -4 10 3 6 11 10 16 10 6 0 7 -4 4
-10z m10 -49 c3 -5 2 -12 -3 -15 -5 -3 -9 1 -9 9 0 17 3 19 12 6z m35 -81 c0
-5 -4 -10 -10 -10 -5 0 -10 5 -10 10 0 6 5 10 10 10 6 0 10 -4 10 -10z"/>
<path d="M6982 4545 c-11 -12 -10 -15 3 -15 8 0 15 7 15 15 0 18 -2 18 -18 0z"/>
<path d="M7060 4540 c0 -5 7 -10 15 -10 8 0 15 -5 15 -11 0 -5 5 -7 10 -4 6 3
10 11 10 17 0 6 -3 8 -6 5 -4 -3 -15 -2 -25 4 -13 6 -19 6 -19 -1z"/>
<path d="M8556 4517 c-3 -16 -6 -57 -6 -91 0 -62 -33 -406 -46 -471 -9 -48 3
-44 25 8 65 151 151 457 151 534 0 40 -13 63 -24 45 -3 -5 -25 -6 -50 -2 -43
6 -44 6 -50 -23z"/>
<path d="M6895 4530 c3 -5 11 -10 16 -10 6 0 7 5 4 10 -3 6 -11 10 -16 10 -6
0 -7 -4 -4 -10z"/>
<path d="M7205 4399 c-17 -7 -16 -8 8 -8 16 -1 26 -5 23 -9 -2 -4 -1 -14 5
-22 6 -11 9 -9 9 11 0 30 -16 40 -45 28z"/>
<path d="M6847 4354 c-4 -4 -7 -17 -7 -28 1 -19 1 -20 11 -3 11 19 8 43 -4 31z"/>
<path d="M7245 4310 c-8 -13 3 -30 18 -29 9 0 9 2 0 5 -7 3 -9 12 -6 20 6 16
-3 19 -12 4z"/>
<path d="M6832 4275 c0 -16 2 -22 5 -12 2 9 2 23 0 30 -3 6 -5 -1 -5 -18z"/>
<path d="M6831 4204 c0 -11 3 -14 6 -6 3 7 2 16 -1 19 -3 4 -6 -2 -5 -13z"/>
<path d="M8831 4204 c0 -11 3 -14 6 -6 3 7 2 16 -1 19 -3 4 -6 -2 -5 -13z"/>
<path d="M7213 4114 c1 -19 5 -34 10 -34 4 0 5 10 2 22 -6 17 -4 20 9 15 21
-8 20 -5 -3 15 -18 15 -19 14 -18 -18z"/>
<path d="M7175 4120 c-3 -5 -2 -10 4 -10 5 0 13 5 16 10 3 6 2 10 -4 10 -5 0
-13 -4 -16 -10z"/>
<path d="M7180 4025 c0 -46 0 -45 -16 -84 -17 -40 -17 -41 -4 -41 6 0 10 6 10
13 0 7 10 23 21 36 16 17 18 26 10 34 -6 6 -11 16 -11 22 0 5 5 3 10 -5 6 -9
10 -10 10 -3 0 6 -5 15 -11 19 -6 3 -9 15 -6 25 3 11 1 19 -4 19 -5 0 -9 -16
-9 -35z"/>
<path d="M7882 3378 c-56 -108 -76 -143 -115 -199 l-39 -54 52 52 c51 52 160
221 160 248 0 34 -28 11 -58 -47z"/>
<path d="M1630 3254 c0 -33 43 -94 115 -164 l57 -55 -54 75 c-29 42 -64 97
-78 123 -28 53 -40 59 -40 21z"/>
<path d="M1866 2925 c-11 -8 -17 -17 -14 -20 2 -3 13 4 23 15 21 23 18 25 -9
5z"/>
<path d="M7496 2911 c-8 -12 3 -41 15 -41 5 0 9 4 9 9 0 5 3 16 6 25 7 17 -20
23 -30 7z"/>
<path d="M2000 2871 c0 -25 9 -29 39 -22 l24 7 -26 17 c-33 22 -37 21 -37 -2z"/>
<path d="M4640 2062 c0 -10 33 -42 43 -42 15 0 6 30 -12 40 -24 12 -31 13 -31
2z"/>
<path d="M4947 2052 c-19 -20 -22 -42 -8 -42 11 0 41 39 41 52 0 14 -16 9 -33
-10z"/>
<path d="M4315 1031 c-12 -5 20 -10 85 -15 58 -3 146 -14 195 -23 128 -24 819
-26 777 -3 -22 12 -96 16 -372 22 -190 3 -379 11 -420 17 -87 12 -236 13 -265
2z"/>
</g>
</svg>
